<svg width="36" height="36" viewBox="0 0 36 36" fill="none" xmlns="http://www.w3.org/2000/svg">
<path d="M35.6499 14.4747H34.2V14.4H18V21.6H28.1727C26.6886 25.7913 22.7007 28.8 18 28.8C12.0357 28.8 7.2 23.9643 7.2 18C7.2 12.0357 12.0357 7.2 18 7.2C20.7531 7.2 23.2578 8.2386 25.1649 9.9351L30.2562 4.8438C27.0414 1.8477 22.7412 0 18 0C8.0595 0 0 8.0595 0 18C0 27.9405 8.0595 36 18 36C27.9405 36 36 27.9405 36 18C36 16.7931 35.8758 15.615 35.6499 14.4747Z" fill="#FFC107"/>
<path d="M2.0752 9.6219L7.98909 13.959C9.58929 9.9972 13.4647 7.2 17.9998 7.2C20.7529 7.2 23.2576 8.2386 25.1647 9.9351L30.256 4.8438C27.0412 1.8477 22.741 0 17.9998 0C11.086 0 5.0902 3.9033 2.0752 9.6219Z" fill="#FF3D00"/>
<path d="M18.0001 36C22.6495 36 26.8741 34.2207 30.0682 31.3272L24.4972 26.613C22.6293 28.0336 20.3468 28.8019 18.0001 28.8C13.3183 28.8 9.34299 25.8147 7.84539 21.6486L1.97559 26.1711C4.95459 32.0004 11.0044 36 18.0001 36Z" fill="#4CAF50"/>
<path d="M35.6499 14.4747H34.2V14.4H18V21.6H28.1727C27.4628 23.5948 26.184 25.3379 24.4944 26.6139L24.4971 26.6121L30.0681 31.3263C29.6739 31.6845 36 27 36 18C36 16.7931 35.8758 15.615 35.6499 14.4747Z" fill="#1976D2"/>
</svg>
