<svg width="10" height="12" viewBox="0 0 10 12" fill="none" xmlns="http://www.w3.org/2000/svg">
<path d="M8.31786 5.5337C8.91786 4.96304 9.28572 4.19185 9.28572 3.34402V3.17772C9.28572 1.42337 7.7125 0 5.77321 0H0.489286C0.219643 0 0 0.200543 0 0.446739V11.519C0 11.7848 0.235714 12 0.526786 12H6.21786C8.30714 12 10 10.4641 10 8.56793V8.38859C10 7.19837 9.33214 6.15 8.31786 5.5337ZM1.71429 1.56522H5.72679C6.74643 1.56522 7.57143 2.28913 7.57143 3.18424V3.33913C7.57143 4.23261 6.74464 4.95815 5.72679 4.95815H1.71429V1.56522ZM8.26071 8.5663C8.26071 9.59185 7.3375 10.4234 6.19821 10.4234H1.71429V6.53315H6.19821C7.3375 6.53315 8.26071 7.36467 8.26071 8.39022V8.5663Z" fill="#222222"/>
</svg>
