<svg width="20" height="12" viewBox="0 0 20 12" fill="none" xmlns="http://www.w3.org/2000/svg">
<path d="M5.72114 10.0554C5.4765 10.0557 5.24028 9.97913 5.05747 9.84024L0 5.99957L5.33833 1.94544C5.53731 1.80002 5.79515 1.72712 6.05639 1.74241C6.31763 1.7577 6.56142 1.85997 6.73532 2.02721C6.90922 2.19446 6.99935 2.41332 6.98633 2.63675C6.9733 2.86017 6.85816 3.07031 6.66567 3.22196L3.0085 5.99957L6.38481 8.56287C6.53649 8.67784 6.64365 8.82952 6.69205 8.99775C6.74046 9.16599 6.72781 9.34282 6.6558 9.50476C6.58379 9.66671 6.45582 9.80612 6.28888 9.90447C6.12194 10.0028 5.92393 10.0555 5.72114 10.0554ZM14.6617 10.0537L20 5.99957L14.9425 2.1589C14.7444 2.00854 14.4844 1.93157 14.2198 1.94494C13.9553 1.95831 13.7078 2.06092 13.5317 2.2302C13.3557 2.39948 13.2656 2.62156 13.2813 2.84758C13.2969 3.0736 13.417 3.28506 13.6152 3.43543L16.9915 5.99957L13.3343 8.77633C13.1361 8.9267 13.0158 9.1382 13.0001 9.3643C12.9843 9.59041 13.0744 9.81259 13.2504 9.98198C13.4264 10.1514 13.674 10.2541 13.9386 10.2675C14.2033 10.281 14.4634 10.2041 14.6617 10.0537ZM9.98601 11.2636L11.985 1.01729C12.0106 0.905309 12.0096 0.790087 11.9822 0.678431C11.9547 0.566774 11.9014 0.460947 11.8253 0.367201C11.7491 0.273456 11.6518 0.193692 11.539 0.132623C11.4262 0.071553 11.3002 0.0304157 11.1685 0.0116408C11.0367 -0.00713405 10.9019 -0.00316589 10.772 0.0233111C10.6421 0.049788 10.5198 0.0982369 10.4121 0.165795C10.3045 0.233354 10.2138 0.318652 10.1455 0.416652C10.0771 0.514652 10.0324 0.623365 10.014 0.73637L8.01499 10.9827C7.98943 11.0947 7.9904 11.2099 8.01784 11.3216C8.04528 11.4332 8.09863 11.5391 8.17475 11.6328C8.25086 11.7265 8.3482 11.8063 8.46101 11.8674C8.57382 11.9284 8.69981 11.9696 8.83154 11.9884C8.96327 12.0071 9.09806 12.0032 9.22797 11.9767C9.35787 11.9502 9.48025 11.9018 9.58787 11.8342C9.69549 11.7666 9.78617 11.6813 9.85455 11.5833C9.92293 11.4853 9.96763 11.3766 9.98601 11.2636Z" fill="#222222"/>
</svg>
