<svg width="10" height="12" viewBox="0 0 10 12" fill="none" xmlns="http://www.w3.org/2000/svg">
<path d="M9.32432 0H4.0991C3.9199 4.19176e-09 3.74804 0.0790175 3.62132 0.21967C3.49461 0.360322 3.42342 0.551088 3.42342 0.75C3.42342 0.948912 3.49461 1.13968 3.62132 1.28033C3.74804 1.42098 3.9199 1.5 4.0991 1.5H5.90991L2.82162 10.5H0.675676C0.496475 10.5 0.324614 10.579 0.197901 10.7197C0.071187 10.8603 0 11.0511 0 11.25C0 11.4489 0.071187 11.6397 0.197901 11.7803C0.324614 11.921 0.496475 12 0.675676 12H5.9009C6.0801 12 6.25196 11.921 6.37867 11.7803C6.50539 11.6397 6.57658 11.4489 6.57658 11.25C6.57658 11.0511 6.50539 10.8603 6.37867 10.7197C6.25196 10.579 6.0801 10.5 5.9009 10.5H4.26847L7.35676 1.5H9.32432C9.50352 1.5 9.67538 1.42098 9.8021 1.28033C9.92881 1.13968 10 0.948912 10 0.75C10 0.551088 9.92881 0.360322 9.8021 0.21967C9.67538 0.0790175 9.50352 4.19177e-09 9.32432 0Z" fill="#222222"/>
</svg>
