<svg width="12" height="12" viewBox="0 0 12 12" fill="none" xmlns="http://www.w3.org/2000/svg">
<path d="M6 0C4.4087 0 2.88258 0.632157 1.75736 1.7574C0.632141 2.88265 0 4.40882 0 6.00016C4.10215e-05 6.78811 0.155276 7.56834 0.456842 8.29629C0.758409 9.02425 1.2004 9.68568 1.75758 10.2428C2.31476 10.8 2.97622 11.2419 3.70419 11.5434C4.43216 11.8449 5.21238 12 6.00031 12C6.78824 12 7.56845 11.8447 8.29639 11.5431C9.02433 11.2416 9.68574 10.7996 10.2429 10.2424C10.8 9.68518 11.2419 9.0237 11.5434 8.29572C11.8449 7.56773 12 6.78748 12 5.99953C12 2.68632 9.31313 0 6 0ZM6 10.7497C5.37168 10.7569 4.74817 10.6393 4.16559 10.4039C3.58301 10.1684 3.05294 9.81967 2.60608 9.3779C2.15921 8.93612 1.80445 8.41007 1.56232 7.83021C1.32019 7.25036 1.19551 6.62822 1.19551 5.99984C1.19551 5.37146 1.32019 4.74933 1.56232 4.16947C1.80445 3.58962 2.15921 3.06357 2.60608 2.62179C3.05294 2.18001 3.58301 1.83129 4.16559 1.59583C4.74817 1.36036 5.37168 1.24282 6 1.25003C6.62832 1.24282 7.25183 1.36036 7.83441 1.59583C8.41699 1.83129 8.94706 2.18001 9.39392 2.62179C9.84079 3.06357 10.1956 3.58962 10.4377 4.16947C10.6798 4.74933 10.8045 5.37146 10.8045 5.99984C10.8045 6.62822 10.6798 7.25036 10.4377 7.83021C10.1956 8.41007 9.84079 8.93612 9.39392 9.3779C8.94706 9.81967 8.41699 10.1684 7.83441 10.4039C7.25183 10.6393 6.62832 10.7569 6 10.7497ZM4.43812 5.8439C4.95563 5.8439 5.375 5.35451 5.375 4.75012C5.375 4.14573 4.955 3.65635 4.4375 3.65635C3.92 3.65635 3.5 4.14573 3.5 4.75012C3.5 5.35451 3.92 5.8439 4.43812 5.8439ZM7.5625 5.8439C8.08063 5.8439 8.5 5.35451 8.5 4.75012C8.5 4.14573 8.08 3.65635 7.5625 3.65635C7.045 3.65635 6.625 4.14636 6.625 4.75012C6.625 5.35389 7.045 5.8439 7.5625 5.8439ZM8.71313 6.83518C8.60281 6.77953 8.47509 6.7693 8.35733 6.80668C8.23957 6.84407 8.14114 6.92609 8.08313 7.03518C8.06188 7.07643 7.54 8.03083 6.00063 8.03083C4.46875 8.03083 3.94375 7.08518 3.9175 7.03581C3.86131 6.92483 3.76333 6.84072 3.64512 6.80198C3.52692 6.76324 3.39816 6.77305 3.28719 6.82924C3.17621 6.88543 3.0921 6.98341 3.05336 7.10162C3.01463 7.21983 3.02443 7.34859 3.08063 7.45957C3.11188 7.52145 3.86063 8.96836 6.00063 8.96836C8.14125 8.96836 8.88875 7.52082 8.91937 7.45894C8.97444 7.34883 8.98366 7.22138 8.94501 7.10448C8.90636 6.98759 8.82298 6.89076 8.71313 6.83518Z" fill="#222222"/>
</svg>
