<svg width="8" height="12" viewBox="0 0 8 12" fill="none" xmlns="http://www.w3.org/2000/svg">
<path d="M0 11.28C0 11.089 0.0790175 10.9059 0.21967 10.7709C0.360322 10.6359 0.551088 10.56 0.75 10.56H7.25C7.44891 10.56 7.63968 10.6359 7.78033 10.7709C7.92098 10.9059 8 11.089 8 11.28C8 11.471 7.92098 11.6541 7.78033 11.7891C7.63968 11.9241 7.44891 12 7.25 12H0.75C0.551088 12 0.360322 11.9241 0.21967 11.7891C0.0790175 11.6541 0 11.471 0 11.28ZM0.75 0C0.948912 0 1.13968 0.0758568 1.28033 0.210883C1.42098 0.345909 1.5 0.529044 1.5 0.72V5.76C1.5 6.39652 1.76339 7.00697 2.23223 7.45706C2.70107 7.90714 3.33696 8.16 4 8.16C4.66304 8.16 5.29893 7.90714 5.76777 7.45706C6.23661 7.00697 6.5 6.39652 6.5 5.76V0.72C6.5 0.529044 6.57902 0.345909 6.71967 0.210883C6.86032 0.0758568 7.05109 0 7.25 0C7.44891 0 7.63968 0.0758568 7.78033 0.210883C7.92098 0.345909 8 0.529044 8 0.72V5.76C8 6.77843 7.57857 7.75515 6.82843 8.47529C6.07828 9.19543 5.06087 9.6 4 9.6C2.93913 9.6 1.92172 9.19543 1.17157 8.47529C0.421427 7.75515 0 6.77843 0 5.76V0.72C0 0.529044 0.0790175 0.345909 0.21967 0.210883C0.360322 0.0758568 0.551088 0 0.75 0Z" fill="#222222"/>
</svg>
