<svg width="14" height="12" viewBox="0 0 14 12" fill="none" xmlns="http://www.w3.org/2000/svg">
<path d="M11.2 1.71429C11.2 1.25963 11.0525 0.823593 10.7899 0.502103C10.5274 0.180612 10.1713 0 9.8 0H1.4C1.0287 0 0.672601 0.180612 0.41005 0.502103C0.1475 0.823593 0 1.25963 0 1.71429V10.2857C0 10.7404 0.1475 11.1764 0.41005 11.4979C0.672601 11.8194 1.0287 12 1.4 12H9.8C10.1713 12 10.5274 11.8194 10.7899 11.4979C11.0525 11.1764 11.2 10.7404 11.2 10.2857V7.42886L14 10.2857V1.71429L11.2 4.57114V1.71429ZM8.4 6.85714H6.3V9.42857H4.9V6.85714H2.8V5.14286H4.9V2.57143H6.3V5.14286H8.4V6.85714Z" fill="#222222"/>
</svg>
