<svg width="20" height="20" viewBox="0 0 20 20" fill="none" xmlns="http://www.w3.org/2000/svg">
<path d="M10.1005 12.5609C10.795 12.5609 11.4611 12.2665 11.9522 11.7424C12.4433 11.2184 12.7193 10.5077 12.7193 9.76658C12.7193 9.68474 12.7157 9.60366 12.7092 9.52357L9.87272 12.5501C9.94778 12.5571 10.0235 12.5609 10.1005 12.5609ZM18.7687 1.12324L17.7698 0.0584128C17.7347 0.0210103 17.6871 0 17.6376 0C17.588 0 17.5404 0.0210103 17.5053 0.0584128L14.9492 2.78659C13.5391 2.01766 11.954 1.63319 10.194 1.63319C5.69996 1.63319 2.34697 4.13059 0.13502 9.12539C0.046111 9.32627 0 9.54567 0 9.76782C0 9.98998 0.046111 10.2094 0.13502 10.4103C1.01886 12.3967 2.08314 13.9889 3.32784 15.1868L0.854253 17.8251C0.8192 17.8625 0.799509 17.9133 0.799509 17.9662C0.799509 18.0191 0.8192 18.0699 0.854253 18.1073L1.85243 19.1724C1.88751 19.2098 1.93507 19.2308 1.98466 19.2308C2.03425 19.2308 2.08181 19.2098 2.11689 19.1724L18.7687 1.40566C18.7861 1.38712 18.7999 1.36511 18.8093 1.34088C18.8187 1.31665 18.8235 1.29068 18.8235 1.26445C18.8235 1.23822 18.8187 1.21225 18.8093 1.18802C18.7999 1.16379 18.7861 1.14177 18.7687 1.12324ZM5.98522 9.76658C5.98515 9.00814 6.1692 8.26262 6.51942 7.60263C6.86965 6.94265 7.37411 6.39072 7.98367 6.00059C8.59322 5.61047 9.28709 5.39546 9.99767 5.37652C10.7083 5.35757 11.4113 5.53534 12.0384 5.89249L10.9015 7.10551C10.4431 6.94887 9.953 6.93001 9.48514 7.05099C9.01728 7.17197 8.58969 7.42812 8.24928 7.79134C7.90888 8.15456 7.66881 8.6108 7.55543 9.11002C7.44205 9.60923 7.45973 10.1321 7.60653 10.6213L6.46969 11.8344C6.15067 11.1983 5.98422 10.4879 5.98522 9.76658Z" fill="#A5A6AA"/>
<path d="M19.8641 8.98463C19.0362 7.08695 18.0507 5.53955 16.9078 4.34241L13.5176 8.03238C13.8033 8.84541 13.8667 9.73111 13.6999 10.5825C13.5332 11.4338 13.1435 12.2145 12.5779 12.83C12.0123 13.4455 11.2951 13.8696 10.5128 14.0511C9.73055 14.2326 8.91674 14.1636 8.16969 13.8526L5.29407 16.9823C6.62815 17.6541 8.11199 17.9901 9.74557 17.9901C14.2662 17.9901 17.6391 15.4277 19.8641 10.3029C19.9536 10.0968 20 9.87172 20 9.64378C20 9.41584 19.9536 9.19073 19.8641 8.98463Z" fill="#A5A6AA"/>
</svg>
