<svg width="18" height="15" viewBox="0 0 18 15" fill="none" xmlns="http://www.w3.org/2000/svg">
<path d="M16.875 0H1.125C0.826631 0 0.540483 0.131696 0.329505 0.366116C0.118526 0.600537 0 0.918479 0 1.25V13.75C0 14.0815 0.118526 14.3995 0.329505 14.6339C0.540483 14.8683 0.826631 15 1.125 15H16.875C17.1734 15 17.4595 14.8683 17.6705 14.6339C17.8815 14.3995 18 14.0815 18 13.75V1.25C18 0.918479 17.8815 0.600537 17.6705 0.366116C17.4595 0.131696 17.1734 0 16.875 0ZM16.0087 13.75H2.05875L5.99625 9.225L5.18625 8.35625L1.125 13.025V2.2L8.11687 9.93125C8.32766 10.1641 8.61279 10.2947 8.91 10.2947C9.20721 10.2947 9.49234 10.1641 9.70312 9.93125L16.875 2.00625V12.9437L12.735 8.34375L11.9419 9.225L16.0087 13.75ZM1.86187 1.25H15.9637L8.91 9.04375L1.86187 1.25Z" fill="#A5A6AA"/>
</svg>
